PathFileType	4	(X/Y/Z)	../Python\walking\Walking08\task.trc
DataRate	CameraRate	NumFrames	NumMarkers	Units	OrigDataRate	OrigDataStartFrame	OrigNumFrames
200.000000	200.000000	4	30	mm	200.000000	62	501
Frame#	Time	CLAV			STRN			RASI			LPSI			LASI			RTH1			RTH2			RTH3			RTB1			RTB2			RTB3			RHEE			RD5M			RTOE			LTB1			LTB2			LTB3			LTOE			LD5M			RPSI			LTH2			LTH1			PE03			T10			LTH3			PE01			PE02			C7			RBAK			LHEE			
		X1	Y1	Z1	X2	Y2	Z2	X3	Y3	Z3	X4	Y4	Z4	X5	Y5	Z5	X6	Y6	Z6	X7	Y7	Z7	X8	Y8	Z8	X9	Y9	Z9	X10	Y10	Z10	X11	Y11	Z11	X12	Y12	Z12	X13	Y13	Z13	X14	Y14	Z14	X15	Y15	Z15	X16	Y16	Z16	X17	Y17	Z17	X18	Y18	Z18	X19	Y19	Z19	X20	Y20	Z20	X21	Y21	Z21	X22	Y22	Z22	X23	Y23	Z23	X24	Y24	Z24	X25	Y25	Z25	X26	Y26	Z26	X27	Y27	Z27	X28	Y28	Z28	X29	Y29	Z29	X30	Y30	Z30	

63	0.31	-112.6708602905274	1402.284545898438	168.3205871582032	-55.86378860473636	1210.224243164063	175.5074005126954	-65.142692565918	1017.952514648438	312.7032165527345	-244.3236846923829	1039.723754882813	139.5573120117188	-76.70168304443362	983.9882812500005	36.94288635253908	-43.78729248046876	765.1494750976565	363.3000793457032	-90.33269500732425	725.573913574219	351.5222473144532	-57.05267715454104	690.3458251953127	339.3456420898439	58.19393157958987	367.3150634765626	288.764373779297	29.74688720703126	313.394256591797	288.663055419922	72.79130554199222	290.7711791992189	277.4289550781251	50.65702819824222	24.1499481201172	184.9639129638672	205.5119628906251	15.00656032562257	269.8690795898439	258.3442687988282	36.41965103149415	231.7112579345704	-410.788024902344	393.1873779296877	60.7916069030762	-458.0310363769534	380.1082763671876	74.48564910888675	-439.1027832031252	320.6507568359376	70.75740814208987	-526.098083496094	28.59068489074708	159.6229553222657	-565.9129028320315	27.60752868652345	110.662223815918	-235.9389190673829	1046.0673828125	238.635711669922	-277.306365966797	676.6843261718752	44.739070892334	-241.3142700195314	703.7680664062502	21.10219383239747	-247.4607238769532	1027.962524414063	166.0873718261719	-282.639617919922	1234.674194335938	160.138656616211	-243.3444061279298	625.766784667969	34.20665359497072	-234.2459106445314	1090.148315429688	184.8440856933594	-242.1485900878907	1032.383056640625	216.8053131103517	-227.1090393066407	1492.5400390625	154.5570678710938	-253.8195648193361	1407.126708984375	322.9576110839845	-645.4443969726565	178.9039154052735	145.4486694335938	
64	0.315	-105.1475830078126	1403.327270507813	168.6110229492188	-47.89585113525392	1211.483154296875	175.5727233886719	-57.2841491699219	1020.095397949219	312.8223571777345	-236.1216735839845	1040.369750976563	138.8445129394532	-68.19510650634768	984.0833129882817	37.683162689209	-36.02315902709962	767.1340332031252	363.1719360351564	-82.98772430419925	727.7431640625002	352.402557373047	-50.10477828979495	692.3426513671877	339.7078247070314	62.49876403808597	368.0403747558595	288.6093139648439	33.61512374877931	314.3601989746095	289.1635742187501	76.2797546386719	291.3792114257814	277.2728576660157	50.87187194824222	24.43965339660646	185.0978393554688	205.7831573486329	15.16724491119385	269.894744873047	259.0346679687501	35.73213958740236	230.9921264648439	-399.6261901855471	393.4745788574221	60.17306137084964	-446.9018859863284	380.8853454589845	74.15953063964847	-428.8167419433596	321.2327575683595	69.89786529541018	-525.0308837890627	29.15158843994142	159.6193389892579	-563.2272949218752	29.53545570373537	110.2703323364258	-228.0348052978517	1047.363891601563	237.956268310547	-266.476776123047	675.2801513671877	45.43287658691408	-230.7686462402345	702.6524047851565	21.71138954162598	-239.3002319335939	1028.776000976563	165.4710540771485	-274.6423645019532	1235.341064453125	160.1675415039063	-232.2636108398439	624.6243286132815	34.50234985351564	-226.2203063964845	1091.094970703125	183.8868408203126	-234.1381988525392	1033.51416015625	216.182586669922	-219.7355804443361	1493.342041015625	154.9736022949219	-246.1430664062501	1407.72705078125	323.3179016113282	-636.4466552734377	183.9169006347657	143.4061431884766	
65	0.32	-97.64114379882818	1404.389282226563	168.8766479492188	-39.97531127929689	1212.750366210938	175.6150360107422	-49.49182128906253	1022.239135742188	312.9372863769532	-228.0167236328126	1041.0400390625	138.1621856689454	-59.81921005249026	984.224487304688	38.42065429687501	-28.35836982727052	769.096801757813	363.0516662597657	-75.689811706543	729.8779907226565	353.2998046875001	-43.15444564819337	694.325866699219	340.1084899902345	66.59147644042972	368.7333984375001	288.5089721679689	37.2631072998047	315.2991638183595	289.6567382812501	79.56256103515628	291.9629821777345	277.1631164550782	51.04791259765628	24.66070556640626	185.2268218994141	205.9944458007814	15.39584064483643	269.9294738769532	259.6128234863282	35.25727462768556	230.3842010498048	-388.0538330078127	393.633728027344	59.52894592285159	-435.3479309082034	381.5227355957032	73.80751800537112	-418.1337890625002	321.6658630371095	69.03360748291018	-523.585388183594	29.93361663818361	159.5347442626954	-560.1243286132815	31.7666473388672	109.8327713012696	-220.1968994140626	1048.676147460938	237.2994689941407	-255.4756927490236	673.6777954101565	46.12987518310548	-220.0822143554689	701.394714355469	22.34782600402833	-231.2311248779298	1029.611938476563	164.8864288330079	-266.6918334960939	1236.052124023438	160.1907653808594	-220.9373016357423	623.3305664062502	34.81290435791017	-218.2673797607423	1092.05908203125	182.9596710205079	-226.1982879638673	1034.66357421875	215.5882720947267	-212.3675537109376	1494.176879882813	155.370346069336	-238.4767608642579	1408.36767578125	323.6605834960939	-627.0345458984377	188.9904022216797	141.2813415527344	
66	0.325	-90.15345764160159	1405.465454101563	169.1163330078126	-32.10589981079103	1214.01806640625	175.6349182128907	-41.7640724182129	1024.3662109375	313.0489807128907	-220.0117034912111	1041.729736328125	137.5210571289063	-51.58098983764651	984.4116821289067	39.14697647094728	-20.79661750793458	771.019165039063	362.943572998047	-68.44116973876956	731.9605712890627	354.212860107422	-36.20611953735353	696.2735595703127	340.5481262207032	70.45757293701175	369.3770751953126	288.4761962890626	40.67718887329103	316.1931152343751	290.1388549804689	82.63155364990237	292.5056457519532	277.1092224121095	51.18692779541018	24.82015419006349	185.3498077392579	206.1516113281251	15.65589809417725	269.9747314453126	260.0946350097657	34.94862365722658	229.8913879394532	-376.084442138672	393.6781005859377	58.85506820678714	-423.3884887695315	382.044403076172	73.40786743164065	-407.0754394531252	321.972381591797	68.16144561767581	-521.6863403320315	30.95947074890138	159.3423767089844	-556.565612792969	34.31797790527345	109.3401947021485	-212.4260406494142	1049.995483398438	236.6755371093751	-244.3095550537111	671.8862304687502	46.82744216918947	-209.2644958496095	700.003845214844	23.00751876831055	-223.2564849853517	1030.46533203125	164.3429412841797	-258.7919311523439	1236.803466796875	160.2112121582032	-209.3724975585939	621.895690917969	35.14017486572267	-210.3890838623048	1093.034545898438	182.0741271972657	-218.3310852050782	1035.82421875	215.0318756103517	-205.0066680908204	1495.040771484375	155.7461547851563	-230.8226165771486	1409.046142578125	323.9856262207032	-617.2434692382815	194.1304473876954	139.1023406982422	
